<svg viewBox="0 0 601 128" xmlns="http://www.w3.org/2000/svg" fill-rule="evenodd" clip-rule="evenodd" stroke-linejoin="round" stroke-miterlimit="2"><path d="M123.756 1.125h32.55c15.975 0 26.175 5.925 22.275 24.45-2.175 10.425-8.925 18.375-19.05 21.075l-.075.3c10.35 1.5 15.525 9.6 12.825 22.425-3.225 15.15-13.425 28.2-36.15 28.2h-32.85l20.475-96.45zm1.95 82.05h7.575c9.3 0 16.425-3.375 18.75-14.55 2.4-11.175-3.3-14.475-11.775-14.475h-8.4l-6.15 29.025zm9.075-42.525h5.55c10.65 0 16.35-3.675 18.225-12.675 1.95-9.15-1.8-12.525-11.4-12.525h-7.05l-5.325 25.2zM181.656 47.1l.375-1.725c3.525-16.725 16.275-22.425 30.3-22.425 22.2 0 24.375 9.15 21.6 22.275l-8.1 38.175c-1.425 6.75-1.725 9.825-.675 14.025h-17.85c-.75-2.325-.675-5.1-.675-7.575h-.3c-5.925 7.575-11.625 9.45-20.55 9.45-12.975 0-15.225-11.1-13.125-20.775 2.925-13.65 9.6-19.2 23.175-22.65l11.175-2.85c5.85-1.5 8.175-3.675 9.225-8.475 1.2-5.55-.525-8.925-6.75-8.925-5.7 0-9.45 3.75-10.65 9.45l-.45 2.025h-16.725zm31.125 14.1c-3 1.875-6.375 3.075-8.775 3.675-7.95 1.65-11.7 5.25-13.05 11.775-1.2 5.55-.15 10.125 4.875 10.125s12.15-3.225 13.875-11.175l3.075-14.4zM244.806 24.825h17.85l-2.1 9.75h.3c5.25-7.05 11.55-11.625 19.2-11.625 1.05 0 2.25.15 3.3.3l-3.75 17.775c-1.875-.15-3.9-.3-5.775-.3-6.525 0-14.475 3.375-16.575 13.125l-9.3 43.575h-18.6l15.45-72.6zM288.456 24.825h17.85l-2.1 9.75h.3c5.25-7.05 11.55-11.625 19.2-11.625 1.05 0 2.25.15 3.3.3l-3.75 17.85c-1.875-.15-3.9-.3-5.775-.3-6.525 0-14.475 3.375-16.575 13.125l-9.3 43.575h-18.675l15.525-72.675zM332.856 24.825h18.675l-15.45 72.6h-18.675l15.45-72.6zM338.106 0h18.675l-3.375 15.9h-18.675L338.106 0zM365.481 63.975l-1.2 5.775c-1.8 8.475-1.275 16.875 5.625 16.875 6.225 0 9.825-4.725 12.75-13.65h16.8c-4.275 16.875-14.4 26.325-31.95 26.325-27.075 0-23.7-20.775-19.875-38.85 4.125-19.425 11.775-37.5 36.9-37.5 21.75 0 23.55 14.55 18.825 36.9l-.9 4.2h-36.975v-.075zm21.375-11.025c1.95-11.1 1.95-17.25-5.775-17.25-7.425 0-11.25 7.725-12.675 14.475l-.6 2.85h19.05v-.075zM413.631 24.825h17.85l-2.1 9.75h.3c5.25-7.05 11.55-11.625 19.2-11.625 1.05 0 2.25.15 3.3.3l-3.675 17.775c-1.875-.15-3.825-.3-5.775-.3-6.525 0-14.475 3.375-16.575 13.125l-9.3 43.65h-18.675l15.45-72.675z" fill="#151515" fill-rule="nonzero"/><path d="M430.956 59.025c-1.725 8.25.675 12.15 7.875 14.85l7.8 3c3.375 1.275 4.875 3.75 4.05 7.575-.975 4.725-4.425 7.575-10.05 7.575-5.925 0-7.35-3.225-6.075-9.15l.375-1.65h-9.225l-.375 1.95c-2.1 9.975.525 15.975 13.575 15.975 10.425 0 19.5-4.725 21.825-15.675 1.725-8.1-.9-12.225-8.025-14.85l-6.15-2.325c-5.025-1.95-6.525-3.525-5.7-7.575.975-4.8 4.65-6.675 8.775-6.675 5.4 0 6 3.825 5.1 7.95l-.3 1.35h9.75l.45-2.325c1.35-6.375 0-14.1-13.125-14.1-10.575-.075-18.525 4.425-20.55 14.1M471.906 46.2l-10.95 51.525h10.35l10.95-51.525h-10.35zm3.75-17.625l-2.175 10.35h10.35l2.175-10.35h-10.35zM492.381 70.275c2.025-9.6 4.875-17.25 12.375-17.25 7.2 0 6.3 9.3 4.5 17.7-1.725 8.1-4.725 18.3-12.825 18.3-7.725 0-5.925-9.9-4.05-18.75m-10.575 1.05c-3 14.1-2.175 25.95 9.9 25.95 4.95 0 10.35-2.55 13.2-7.05h.15l-1.8 8.325c-1.275 5.925-5.4 9.675-10.8 9.675-4.575 0-6.825-3-6.15-6.15h-9.75c-.9 4.2-1.125 13.2 14.25 13.2 13.875 0 20.85-7.575 23.55-20.1L524.781 46.2h-9.75l-1.35 6.3h-.225c-.15-3.75-3.675-7.65-9.675-7.65-14.625 0-19.575 15.225-21.975 26.475M537.981 52.2h-.3l1.275-6h-9.75l-10.95 51.525h10.35l7.35-34.575c1.425-6.675 6.15-10.05 10.35-10.05 5.175 0 6.6 2.55 5.175 9.3l-7.5 35.325h10.35l8.25-38.85c2.25-10.425-2.025-13.95-9.9-13.95-5.625-.075-11.1 2.7-14.7 7.275M566.031 59.025c-1.725 8.25.675 12.15 7.875 14.85l7.8 3c3.375 1.275 4.875 3.75 4.05 7.575-.975 4.725-4.425 7.575-10.05 7.575-5.925 0-7.35-3.225-6.075-9.15l.375-1.65h-9.225l-.375 1.95c-2.1 9.975.525 15.975 13.575 15.975 10.425 0 19.5-4.725 21.825-15.675 1.725-8.1-.975-12.225-8.025-14.85l-6.15-2.325c-5.025-1.95-6.525-3.525-5.7-7.575 1.05-4.8 4.65-6.675 8.775-6.675 5.4 0 6 3.825 5.1 7.95l-.3 1.35h9.75l.525-2.325c1.35-6.375 0-14.1-13.125-14.1-10.575-.075-18.525 4.425-20.625 14.1" fill="#d1dd00" fill-rule="nonzero"/><path d="M36.006 20.25c-3.6 0-6.975 2.925-7.65 6.45l-8.025 44.325c-.675 3.525 1.725 6.45 5.325 6.45h44.4c3.6 0 6.975-2.925 7.65-6.45L85.731 26.7c.675-3.6-1.725-6.45-5.25-6.45H36.006z" fill="url(#_Linear1)" fill-rule="nonzero"/><clipPath id="a"><path d="M64.656.45l-2.1 11.4h19.275c2.025 0 3.9.375 5.55 1.2 1.65.75 3 1.8 4.125 3.15 1.125 1.35 1.875 2.925 2.325 4.725.45 1.8.45 3.75.15 5.775l-3.525 19.2h11.4l3.45-19.2c.675-3.525.6-6.975-.225-10.2-.75-3.15-2.175-5.925-4.125-8.325-1.95-2.4-4.425-4.275-7.35-5.625-3-1.35-6.3-2.1-9.825-2.1H64.656z"/></clipPath><g clip-path="url(#a)"><path d="M93.981-15.45l37.05 48.75-56.4 28.575-36.975-48.75L93.981-15.45z" fill="url(#_Radial3)" fill-rule="nonzero"/></g><clipPath id="b"><path d="M39.531.45c-3.525 0-7.125.675-10.575 2.1a34.259 34.259 0 00-9.375 5.625c-2.85 2.4-5.25 5.175-7.125 8.325-1.95 3.225-3.3 6.675-3.9 10.2L5.031 45.9h11.4l3.525-19.2a16.55 16.55 0 012.25-5.775c1.05-1.8 2.4-3.375 4.05-4.725a18.171 18.171 0 015.325-3.15c1.95-.75 3.975-1.2 6-1.2h19.275l2.1-11.4H39.531z"/></clipPath><g clip-path="url(#b)"><path d="M43.881-19.2l39.9 52.5-63.825 32.325-39.825-52.5L43.881-19.2z" fill="url(#_Radial5)" fill-rule="nonzero"/></g><clipPath id="c"><path d="M89.481 51.75l-3.45 19.2a16.55 16.55 0 01-2.25 5.775c-1.05 1.8-2.4 3.375-4.05 4.725-1.65 1.35-3.375 2.4-5.325 3.15-1.95.75-3.975 1.2-6 1.2h-19.2l-2.1 11.475h19.275c3.525 0 7.125-.675 10.575-2.1a34.259 34.259 0 009.375-5.625c2.85-2.4 5.25-5.175 7.125-8.325 1.95-3.225 3.3-6.675 3.9-10.2l3.45-19.2H89.481v-.075z"/></clipPath><g clip-path="url(#c)"><path d="M85.956 32.1l39.9 52.5-63.825 32.325-39.825-52.5L85.956 32.1z" fill="url(#_Radial7)" fill-rule="nonzero"/></g><clipPath id="d"><path d="M3.981 51.75L.456 71.025c-.675 3.525-.6 6.975.225 10.2.75 3.15 2.175 5.925 4.125 8.325 1.95 2.4 4.425 4.275 7.35 5.625 3 1.35 6.3 2.1 9.825 2.1h19.275l2.1-11.4H24.081c-2.025 0-3.9-.375-5.55-1.2-1.65-.75-3-1.8-4.125-3.15-1.125-1.35-1.875-2.925-2.325-4.725-.45-1.8-.45-3.75-.15-5.775l3.525-19.2H3.981v-.075z"/></clipPath><g clip-path="url(#d)"><path d="M31.281 35.85L68.256 84.6l-56.325 28.575-37.05-48.75 56.4-28.575z" fill="url(#_Radial9)" fill-rule="nonzero"/></g><path d="M141.756 125.7l-1.425-1.875c-.3.075-.675.225-.975.225-.3.075-.675.075-1.125.075-4.575 0-4.5-3.3-3.45-7.875.975-4.65 2.25-7.875 6.825-7.875s4.5 3.3 3.45 7.875c-.525 2.55-1.2 4.725-2.475 6.15l1.275 1.65-2.1 1.65zm-3.075-3.825c1.8 0 2.475-1.575 3.3-5.625.9-4.05.9-5.625-.9-5.625s-2.475 1.575-3.3 5.625c-.825 4.05-.9 5.625.9 5.625zM151.356 122.475c-.9 1.125-2.1 1.65-3.3 1.65-1.8 0-2.7-.975-2.25-3.225l1.8-8.475h2.925l-1.725 7.875c-.225 1.125.075 1.575.9 1.575.975 0 1.65-.6 1.95-1.875l1.65-7.575h2.925l-2.475 11.475h-2.775l.375-1.425zM157.506 115.875l.075-.3c.6-2.625 2.55-3.525 4.8-3.525 3.525 0 3.825 1.425 3.375 3.525l-1.275 6c-.225 1.05-.3 1.575-.15 2.25h-2.775c-.15-.375-.075-.825-.075-1.2h-.075c-.9 1.2-1.8 1.5-3.225 1.5-2.025 0-2.4-1.725-2.1-3.3.45-2.175 1.5-3 3.675-3.6l1.725-.45c.9-.225 1.275-.6 1.425-1.35.15-.9-.075-1.425-1.05-1.425-.9 0-1.5.6-1.65 1.5l-.075.3h-2.625v.075zm4.875 2.175c-.45.3-.975.525-1.35.6-1.275.225-1.875.825-2.025 1.875-.15.9 0 1.575.75 1.575s1.95-.525 2.175-1.8l.45-2.25zM169.431 108.6h2.925l-3.225 15.15h-2.925l3.225-15.15zM173.781 112.35h2.925l-2.475 11.475h-2.925l2.475-11.475zm.825-3.9h2.925l-.525 2.475h-2.925l.525-2.475zM180.081 109.05h2.925l-.675 3.3h1.725l-.45 2.025h-1.725l-1.275 6.15c-.225.9-.075 1.275.75 1.275.225 0 .45 0 .675-.075l-.45 2.025c-.675.075-1.275.15-1.95.15-2.325 0-2.55-.675-2.1-3l1.425-6.525h-1.5l.45-2.025h1.5l.675-3.3zM182.331 125.325c.225.075.525.075.75.075 1.05 0 1.65-.6 1.95-1.65l-.75-11.475h3.075v7.95h.075l3.15-7.95h2.925l-5.025 10.65c-1.875 3.975-2.625 4.5-5.4 4.5h-1.2l.45-2.1zM200.706 108.6h5.025c4.275 0 4.425 2.925 3.45 7.35-1.125 5.4-2.85 7.8-6.9 7.8h-4.8l3.225-15.15zm.3 12.975h1.35c2.1 0 2.85-1.35 3.75-5.475.75-3.45.825-5.175-1.5-5.175h-1.275l-2.325 10.65zM211.956 112.35h2.925l-2.475 11.475h-2.925l2.475-11.475zm.9-3.9h2.925l-.525 2.475h-2.925l.525-2.475zM216.981 112.35h2.775l-.3 1.5h.075c.825-1.125 1.8-1.8 3-1.8.15 0 .375 0 .525.075l-.6 2.775c-.3 0-.6-.075-.9-.075-1.05 0-2.25.525-2.625 2.1l-1.5 6.9h-2.925l2.475-11.475zM225.306 118.5l-.225.9c-.3 1.35-.225 2.625.9 2.625.975 0 1.575-.75 2.025-2.175h2.625c-.675 2.625-2.25 4.125-5.025 4.125-4.275 0-3.75-3.3-3.15-6.15.675-3.075 1.875-5.925 5.85-5.925 3.45 0 3.675 2.325 2.925 5.775l-.15.675h-5.775v.15zm3.375-1.725c.3-1.725.3-2.7-.9-2.7s-1.8 1.2-2.025 2.25l-.075.45h3zM238.581 116.475c.225-1.125.3-2.325-.825-2.325-1.425 0-1.95 1.275-2.55 3.9-.6 2.85-.6 3.975.75 3.975.975 0 1.575-.825 2.025-2.7h2.775c-.675 3-2.25 4.65-5.4 4.65-2.925 0-4.05-1.425-3.075-6 .975-4.725 3.225-6 5.925-6 2.7 0 3.75 1.725 3.15 4.425h-2.775v.075zM245.181 109.05h2.925l-.675 3.3h1.725l-.45 2.025h-1.725l-1.35 6.15c-.225.9-.075 1.275.75 1.275.225 0 .45 0 .675-.075l-.45 2.025c-.675.075-1.275.15-1.95.15-2.325 0-2.55-.675-2.1-3l1.425-6.525h-1.5l.45-2.025h1.5l.75-3.3zM250.206 112.35h2.925l-2.475 11.475h-2.925l2.475-11.475zm.825-3.9h2.925l-.525 2.475h-2.925l.525-2.475zM259.431 112.05c3.525-.075 4.05 2.025 3.225 6-.825 3.9-2.475 6-5.775 6-3.525.075-4.05-2.025-3.225-6 .825-3.9 2.4-6 5.775-6zm-2.175 10.05c1.2 0 1.8-1.2 2.4-4.05.6-2.85.45-4.05-.75-4.05-1.425 0-1.95 1.65-2.475 4.05-.375 2.4-.6 4.05.825 4.05zM265.431 112.35h2.775l-.3 1.35h.075c.825-1.125 2.025-1.65 3.3-1.65 1.8 0 2.7.975 2.25 3.225l-1.8 8.475h-2.925l1.725-7.875c.225-1.125-.075-1.575-.9-1.575-.975 0-1.725.6-1.95 1.875l-1.65 7.575h-2.925l2.325-11.4zM285.081 108.6h3.825l.75 15.15h-3.225v-3.225h-4.05l-1.425 3.225h-3.225l7.35-15.15zm-1.65 9.45h3v-6.825h-.075l-2.925 6.825zM297.681 116.475c.225-1.125.3-2.325-.825-2.325-1.425 0-1.95 1.275-2.55 3.9-.6 2.85-.6 3.975.75 3.975.975 0 1.575-.825 2.025-2.7h2.775c-.675 3-2.25 4.65-5.4 4.65-2.925 0-4.05-1.425-3.075-6 .975-4.725 3.225-6 5.925-6 2.7 0 3.75 1.725 3.15 4.425h-2.775v.075zM302.931 112.35h2.775l-.3 1.5h.075c.825-1.125 1.8-1.8 3-1.8.15 0 .375 0 .525.075l-.6 2.775c-.3 0-.6-.075-.9-.075-1.05 0-2.25.525-2.625 2.1l-1.5 6.9h-2.925l2.475-11.475zM314.256 112.05c3.525-.075 4.05 2.025 3.225 6-.825 3.9-2.475 6-5.775 6-3.525.075-4.05-2.025-3.225-6 .75-3.9 2.4-6 5.775-6zm-2.175 10.05c1.2 0 1.8-1.2 2.4-4.05.6-2.85.45-4.05-.75-4.05-1.425 0-1.95 1.65-2.475 4.05-.375 2.4-.6 4.05.825 4.05zM320.781 120.075l-.075.375c-.225.975.15 1.65 1.2 1.65.9 0 1.575-.45 1.8-1.35.15-.75-.225-1.05-.75-1.275l-1.875-.75c-1.5-.6-2.1-1.575-1.8-3.225.375-1.875 1.95-3.45 4.95-3.45 2.7 0 3.675 1.2 3.225 3.225l-.075.45h-2.775c.225-1.125 0-1.725-.9-1.725-.75 0-1.5.45-1.65 1.2-.15.525.075 1.05.975 1.35l1.65.6c1.725.6 2.175 1.575 1.8 3.3-.525 2.4-2.55 3.6-5.025 3.6-3.3 0-3.9-1.425-3.45-3.6l.075-.375h2.7zM330.231 120.075l-.075.375c-.225.975.15 1.65 1.2 1.65.9 0 1.575-.45 1.8-1.35.15-.75-.225-1.05-.75-1.275l-1.875-.75c-1.5-.6-2.1-1.575-1.8-3.225.375-1.875 1.95-3.45 4.95-3.45 2.7 0 3.675 1.2 3.225 3.225l-.075.45h-2.625c.225-1.125 0-1.725-.9-1.725-.75 0-1.5.45-1.65 1.2-.15.525.075 1.05.975 1.35l1.65.6c1.725.6 2.175 1.575 1.8 3.3-.525 2.4-2.55 3.6-5.025 3.6-3.3 0-3.9-1.425-3.45-3.6l.075-.375h2.55zM348.681 108.6l1.5 10.425h.075l2.25-10.425h2.775l-3.225 15.15h-3.525l-1.5-10.65h-.075l-2.25 10.65h-2.775l3.225-15.15h3.525zM357.606 119.025l-.075.45c-.3 1.425-.075 2.325 1.5 2.325.975 0 1.95-.6 2.25-1.875.3-1.35-.3-1.875-2.175-2.625-2.55-.975-3.525-2.1-3-4.575.6-2.925 2.775-4.5 5.7-4.5 2.7 0 4.425 1.2 3.825 4.05l-.075.45h-2.925c.3-1.425 0-2.25-1.2-2.25-1.35 0-1.95.9-2.1 1.8-.225.9-.075 1.5 1.125 2.1l2.175 1.05c2.1.975 2.4 2.175 2.025 4.05-.675 3.225-2.925 4.65-6.3 4.65-3.45 0-4.5-1.65-3.9-4.425l.15-.6h3v-.075zM367.581 108.6h2.925l-.75 11.25h.075l4.2-11.25h2.925l-.6 11.25h.075l4.05-11.25h2.925l-6 15.15h-3.45l.675-11.025h-.075l-4.05 11.025h-3.45l.525-15.15zM395.556 118.8c.45-.675.9-1.65 1.05-2.325h2.625c-.375 1.65-1.35 3.225-2.55 4.5l1.425 2.775h-3.225l-.6-1.2c-.975.9-2.475 1.5-3.975 1.5-3.825 0-4.125-2.7-3.75-4.35.375-1.8 1.875-3.225 3.975-4.35l-.375-.75c-.6-1.275-.6-1.875-.45-2.775.45-1.95 2.25-3.225 4.575-3.225 2.625 0 3.525 1.425 3.15 3.15-.3 1.5-1.425 2.7-3.45 3.9l1.575 3.15zm-3.9-1.65c-1.35.9-1.875 1.65-2.1 2.55-.225.975.3 2.025 1.725 2.025.825 0 1.5-.3 2.175-.975l-1.8-3.6zm1.05-3.75l.225.525.675-.45c.825-.525 1.2-1.125 1.35-1.65.15-.825-.3-1.275-1.05-1.275s-1.425.45-1.575 1.2c-.075.375 0 .975.375 1.65zM407.481 108.6h5.1c2.55 0 4.125.9 3.525 3.825-.375 1.65-1.425 2.925-3 3.3v.075c1.65.225 2.475 1.5 2.025 3.525-.525 2.4-2.1 4.425-5.7 4.425h-5.175l3.225-15.15zm.3 12.975h1.2c1.5 0 2.55-.525 2.925-2.325.375-1.8-.525-2.25-1.875-2.25h-1.35l-.9 4.575zm1.425-6.75h.9c1.65 0 2.55-.6 2.85-2.025.3-1.425-.3-1.95-1.8-1.95h-1.05l-.9 3.975zM419.631 118.5l-.225.9c-.3 1.35-.225 2.625.9 2.625.975 0 1.575-.75 2.025-2.175h2.625c-.675 2.625-2.25 4.125-5.025 4.125-4.275 0-3.75-3.3-3.15-6.15.675-3.075 1.875-5.925 5.85-5.925 3.45 0 3.675 2.325 2.925 5.775l-.15.675h-5.775v.15zm3.375-1.725c.3-1.725.3-2.7-.9-2.7s-1.8 1.2-2.025 2.25l-.075.45h3zM425.556 125.325c.225.075.525.075.75.075 1.05 0 1.65-.6 1.95-1.65l-.75-11.475h3.075v7.95h.075l3.15-7.95h2.925l-5.025 10.65c-1.875 3.975-2.625 4.5-5.4 4.5h-1.2l.45-2.1zM441.981 112.05c3.525-.075 4.05 2.025 3.225 6-.825 3.9-2.475 6-5.775 6-3.525.075-4.05-2.025-3.225-6 .825-3.9 2.4-6 5.775-6zm-2.175 10.05c1.2 0 1.8-1.2 2.4-4.05.6-2.85.45-4.05-.75-4.05-1.425 0-1.95 1.65-2.475 4.05-.375 2.4-.6 4.05.825 4.05zM447.981 112.35h2.775l-.3 1.35h.075c.825-1.125 2.025-1.65 3.3-1.65 1.8 0 2.7.975 2.25 3.225l-1.8 8.475h-2.925l1.725-7.875c.225-1.125-.075-1.575-.9-1.575-.975 0-1.725.6-1.95 1.875l-1.65 7.575h-2.925l2.325-11.4zM462.381 122.625c-.9 1.05-1.8 1.5-3 1.5-2.4 0-3.15-1.8-2.25-6 .9-4.275 2.4-6 4.8-6 1.125 0 1.725.45 2.175 1.35h.075l1.05-4.8h2.925l-3.225 15.15h-2.775l.225-1.2zm-1.575-.75c1.275 0 1.8-1.275 2.325-3.75.525-2.475.525-3.75-.75-3.75s-1.8 1.275-2.325 3.75c-.45 2.475-.525 3.75.75 3.75z" fill="#151515" fill-rule="nonzero"/><defs><radialGradient id="_Radial3" cx="0" cy="0" r="1" gradientUnits="userSpaceOnUse" gradientTransform="matrix(54.2813 71.5036 81.4267 -41.2617 28.882 13.023)"><stop offset="0" stop-color="#e8e8e8"/><stop offset="1" stop-color="#c9c9c9"/></radialGradient><radialGradient id="_Radial5" cx="0" cy="0" r="1" gradientUnits="userSpaceOnUse" gradientTransform="matrix(54.2875 71.5117 81.436 -41.2664 28.888 13.01)"><stop offset="0" stop-color="#e8e8e8"/><stop offset="1" stop-color="#c9c9c9"/></radialGradient><radialGradient id="_Radial7" cx="0" cy="0" r="1" gradientUnits="userSpaceOnUse" gradientTransform="matrix(54.2868 71.5107 81.4348 -41.2658 28.857 13.01)"><stop offset="0" stop-color="#e8e8e8"/><stop offset="1" stop-color="#c9c9c9"/></radialGradient><radialGradient id="_Radial9" cx="0" cy="0" r="1" gradientUnits="userSpaceOnUse" gradientTransform="matrix(54.2879 71.5122 81.4365 -41.2667 28.858 13.015)"><stop offset="0" stop-color="#e8e8e8"/><stop offset="1" stop-color="#c9c9c9"/></radialGradient><linearGradient id="_Linear1" x1="0" y1="0" x2="1" y2="0" gradientUnits="userSpaceOnUse" gradientTransform="scale(-71.1716) rotate(52.722 .607 -1.671)"><stop offset="0" stop-color="#89bf3c"/><stop offset=".15" stop-color="#9ec938"/><stop offset=".47" stop-color="#d2e129"/><stop offset=".68" stop-color="#f7f40b"/><stop offset="1" stop-color="#f7f40b"/></linearGradient></defs></svg>