<svg xmlns="http://www.w3.org/2000/svg" width="100%" height="100%" fill-rule="evenodd" stroke-linejoin="round" stroke-miterlimit="2" clip-rule="evenodd" version="1.1" viewBox="0 0 423 54" xml:space="preserve">
  <defs/>
  <path fill="#27aae1" fill-rule="nonzero" d="M10.875.975H28.2c8.475 0 13.875 3.15 11.775 12.975-1.2 5.55-4.725 9.75-10.125 11.175v.15c5.475.825 8.25 5.1 6.825 11.925-1.725 8.025-7.125 15-19.2 15H0L10.875.975zm1.05 43.65h4.05c4.95 0 8.7-1.8 9.975-7.725 1.275-5.925-1.725-7.65-6.225-7.65H15.3l-3.375 15.375zm4.8-22.65h2.925c5.7 0 8.7-1.95 9.675-6.75 1.05-4.875-.975-6.675-6.075-6.675H19.5l-2.775 13.425zm29.7-8.325h9.45l-1.125 5.175h.15c2.775-3.75 6.15-6.15 10.2-6.15.6 0 1.2.075 1.8.15l-2.025 9.45c-.975-.075-2.025-.15-3.075-.15-3.45 0-7.725 1.8-8.775 6.975l-4.95 23.175H38.25l8.175-38.625zM66.45 25.425l.225-.9C68.55 15.6 75.3 12.6 82.8 12.6c11.775 0 12.975 4.875 11.475 11.85l-4.35 20.325c-.75 3.6-.9 5.25-.375 7.5H80.1c-.375-1.2-.375-2.7-.375-4.05h-.15c-3.15 4.05-6.15 5.025-10.875 5.025-6.9 0-8.1-5.85-6.975-11.025 1.575-7.275 5.1-10.2 12.3-12.075l5.925-1.5c3.075-.825 4.35-1.95 4.875-4.5.6-2.925-.3-4.725-3.6-4.725-3 0-5.025 2.025-5.7 5.025L75.3 25.5h-8.85v-.075zm16.5 7.5c-1.575.975-3.375 1.65-4.65 1.95-4.2.825-6.225 2.775-6.9 6.225-.6 2.925-.075 5.4 2.55 5.4s6.45-1.725 7.35-5.925l1.65-7.65zm19.725-19.275h9.9l-8.25 38.625h-9.9l8.25-38.625zM105.45.375h9.9l-1.8 8.475h-9.9l1.8-8.475zm15.825.6h9.9L120.3 52.2h-9.9L121.275.975zm15.9 0h9.9L136.2 52.2h-9.9L137.175.975zm16.95 33.45l-.675 3.075c-.975 4.5-.675 9 3 9 3.3 0 5.175-2.475 6.75-7.275h8.925c-2.25 9-7.65 14.025-16.95 14.025-14.325 0-12.6-11.025-10.5-20.7C146.85 22.2 150.9 12.6 164.25 12.6c11.55 0 12.525 7.725 9.975 19.575l-.45 2.25h-19.65zm11.4-5.85c1.05-5.85 1.05-9.15-3.075-9.15-3.975 0-6 4.125-6.75 7.65l-.3 1.5h10.125z"/>
  <path fill="#bcbec0" fill-rule="nonzero" d="M219.675 12.15h4.125l-11.85 21.075c-.825 1.5-1.575 3.075-1.8 4.2-.225 1.05.3 1.8 1.575 1.8 6.375 0 14.85-9.9 16.5-17.4 2.4-11.25-6.375-18.675-17.475-18.675-14.175 0-26.625 10.875-29.325 23.325-2.775 12.9 5.7 23.325 19.35 23.325 7.725 0 16.65-3.825 21.825-9.9h4.275c-6.6 8.025-17.1 13.05-26.85 13.05-15.825 0-25.35-12-22.275-26.475C180.9 11.775 195.975 0 211.275 0c13.95 0 23.1 9.225 20.325 22.05-2.325 11.025-13.575 20.325-21.3 20.325-2.7 0-4.65-1.5-3.825-4.875h-.15c-3.975 3.225-7.2 4.875-11.175 4.875-5.625 0-8.625-4.05-7.2-10.575 2.1-9.9 11.7-20.925 21.975-20.925 3.375 0 6.15 1.575 6.75 5.925h.15l2.85-4.65zM196.5 38.85c7.65 0 15.6-10.875 17.025-17.475.975-4.65-.375-6.9-4.725-6.9-7.725 0-15.45 10.2-16.875 17.025-.9 4.425.3 7.35 4.575 7.35z"/>
  <path fill="#231f20" fill-rule="nonzero" d="M240.6.975h17.325c8.475 0 13.875 3.15 11.775 12.975-1.2 5.55-4.725 9.75-10.125 11.175v.15c5.475.825 8.25 5.1 6.825 11.925-1.725 8.025-7.125 15-19.2 15h-17.475L240.6.975zm1.05 43.65h4.05c4.95 0 8.7-1.8 9.975-7.725 1.275-5.925-1.725-7.65-6.225-7.65h-4.425l-3.375 15.375zm4.875-22.65h2.925c5.7 0 8.7-1.95 9.675-6.75 1.05-4.875-.975-6.675-6.075-6.675h-3.75l-2.775 13.425zm27.075 3.45l.225-.9C275.7 15.6 282.45 12.6 289.95 12.6c11.775 0 12.975 4.875 11.475 11.85l-4.35 20.325c-.75 3.6-.9 5.25-.375 7.5h-9.45c-.375-1.2-.375-2.7-.375-4.05h-.15c-3.15 4.05-6.15 5.025-10.875 5.025-6.9 0-8.1-5.85-6.975-11.025 1.575-7.275 5.1-10.2 12.3-12.075l5.925-1.5c3.075-.825 4.35-1.95 4.875-4.5.6-2.925-.3-4.725-3.6-4.725-3 0-5.025 2.025-5.7 5.025l-.225 1.05h-8.85v-.075zm16.5 7.5c-1.575.975-3.375 1.65-4.65 1.95-4.2.825-6.225 2.775-6.9 6.225-.6 2.925-.075 5.4 2.55 5.4s6.45-1.725 7.35-5.925l1.65-7.65zm19.35-19.275h9.45l-1.125 5.175h.15c2.775-3.75 6.15-6.15 10.2-6.15.6 0 1.2.075 1.8.15l-2.025 9.45c-.975-.075-2.025-.15-3.075-.15-3.45 0-7.725 1.8-8.775 6.975l-4.95 23.175h-9.9l8.25-38.625zm22.575 0h9.45l-1.125 5.175h.15c2.775-3.75 6.15-6.15 10.2-6.15.6 0 1.2.075 1.8.15l-2.025 9.45c-.975-.075-2.025-.15-3.075-.15-3.45 0-7.725 1.8-8.775 6.975l-4.95 23.175h-9.9l8.25-38.625zm22.95 0h9.9l-8.25 38.625h-9.9l8.25-38.625zm2.85-13.275h9.9l-1.8 8.475h-9.9l1.8-8.475zm16.8 34.05l-.675 3.075c-.975 4.5-.675 9 3 9 3.3 0 5.175-2.475 6.75-7.275h8.925c-2.25 9-7.65 14.025-16.95 14.025-14.325 0-12.6-11.025-10.5-20.7C367.35 22.2 371.4 12.6 384.75 12.6c11.55 0 12.525 7.725 9.975 19.575l-.45 2.25h-19.65zm11.4-5.85c1.05-5.85 1.05-9.15-3.075-9.15-3.975 0-6 4.125-6.75 7.65l-.3 1.5h10.125zm16.5-14.925h9.45l-1.125 5.175h.15c2.775-3.75 6.15-6.15 10.2-6.15.6 0 1.2.075 1.8.15l-2.025 9.45c-.975-.075-2.025-.15-3.075-.15-3.45 0-7.725 1.8-8.775 6.975l-4.95 23.175h-9.9l8.25-38.625z"/>
</svg>