<svg viewBox="0 0 414 81" xmlns="http://www.w3.org/2000/svg" fill-rule="evenodd" clip-rule="evenodd" stroke-linejoin="round" stroke-miterlimit="2"><path d="M10.725.825H27.6C35.85.825 41.175 3.9 39.15 13.5c-1.125 5.4-4.65 9.525-9.9 10.95v.15c5.4.75 8.025 4.95 6.675 11.625-1.65 7.875-6.975 14.7-18.75 14.7H.075l10.65-50.1zm1.05 42.6h3.9c4.875 0 8.55-1.725 9.75-7.575 1.275-5.85-1.725-7.5-6.15-7.5h-4.35l-3.15 15.075zm4.65-22.05h2.85c5.55 0 8.475-1.875 9.45-6.6 1.05-4.8-.9-6.525-5.925-6.525h-3.675l-2.7 13.125zM45.525 13.125h9.225L53.7 18.15h.15c2.775-3.675 6-6 9.975-6 .525 0 1.2.075 1.725.15l-1.95 9.225c-.975-.075-2.025-.15-3-.15-3.375 0-7.5 1.725-8.625 6.825l-4.8 22.65h-9.75l8.1-37.725zM65.1 24.75l.225-.9c1.875-8.7 8.475-11.625 15.75-11.625 11.475 0 12.675 4.8 11.25 11.55l-4.2 19.875c-.75 3.525-.9 5.1-.375 7.275h-9.375c-.375-1.2-.375-2.7-.375-3.9h-.15c-3.075 3.9-6 4.875-10.65 4.875-6.75 0-7.875-5.775-6.825-10.8 1.5-7.05 5.025-9.975 12.075-11.775l5.775-1.5c3.075-.75 4.275-1.875 4.8-4.425.6-2.85-.3-4.65-3.525-4.65-2.925 0-4.875 1.95-5.55 4.875l-.225 1.05H65.1v.075zm16.125 7.275c-1.575.975-3.3 1.65-4.575 1.875-4.125.825-6.075 2.7-6.75 6.075-.6 2.85-.075 5.25 2.55 5.25s6.3-1.65 7.2-5.85l1.575-7.35zM100.425 13.125h9.675l-8.025 37.725H92.4l8.025-37.725zM103.2.225h9.675l-1.8 8.25H101.4l1.8-8.25zM118.65.825h9.675l-10.65 50.1H108l10.65-50.1zM134.25.825h9.675l-10.65 50.1H123.6l10.65-50.1zM150.75 33.525l-.675 3C149.1 40.95 149.4 45.3 153 45.3c3.225 0 5.1-2.475 6.6-7.05h8.775c-2.25 8.775-7.5 13.65-16.575 13.65-14.025 0-12.3-10.8-10.275-20.175 2.175-10.125 6.15-19.5 19.2-19.5 11.325 0 12.225 7.575 9.75 19.125l-.45 2.175H150.75zm11.1-5.775c1.05-5.775.975-9-3-9-3.825 0-5.85 3.975-6.6 7.5l-.3 1.5h9.9z" fill="#27aae1" fill-rule="nonzero"/><path d="M214.8 11.775h3.975L207.225 32.4c-.825 1.5-1.575 3-1.8 4.125-.225 1.05.3 1.725 1.5 1.725 6.225 0 14.55-9.675 16.125-16.95 2.325-11.025-6.225-18.225-17.1-18.225-13.8 0-26.025 10.65-28.65 22.8-2.7 12.6 5.625 22.8 18.9 22.8 7.575 0 16.275-3.75 21.375-9.675h4.2c-6.45 7.875-16.65 12.75-26.25 12.75-15.525 0-24.825-11.7-21.75-25.875C176.85 11.475 191.55 0 206.55 0c13.575 0 22.575 9.075 19.875 21.525-2.325 10.8-13.275 19.875-20.85 19.875-2.7 0-4.5-1.5-3.75-4.8h-.15c-3.9 3.15-7.05 4.8-10.875 4.8-5.475 0-8.4-3.9-7.05-10.35 2.025-9.675 11.475-20.475 21.45-20.475 3.3 0 6 1.575 6.6 5.85h.15l2.85-4.65zm-22.575 26.1c7.5 0 15.225-10.65 16.575-17.025.975-4.575-.375-6.75-4.575-6.75-7.575 0-15.075 9.975-16.5 16.65-.9 4.2.3 7.125 4.5 7.125z" fill="#bcbec0" fill-rule="nonzero"/><path d="M235.35.825h16.875c8.25 0 13.575 3.075 11.55 12.675-1.125 5.4-4.65 9.525-9.9 10.95v.15c5.4.75 8.025 4.95 6.675 11.625-1.65 7.875-6.975 14.7-18.75 14.7h-17.025L235.35.825zm.975 42.6h3.9c4.875 0 8.55-1.725 9.75-7.575 1.275-5.85-1.725-7.5-6.15-7.5h-4.35l-3.15 15.075zm4.725-22.05h2.85c5.55 0 8.475-1.875 9.45-6.6 1.05-4.8-.9-6.525-5.925-6.525h-3.675l-2.7 13.125zM267.6 24.75l.225-.9c1.875-8.7 8.475-11.625 15.75-11.625 11.475 0 12.675 4.8 11.25 11.55l-4.2 19.875c-.75 3.525-.9 5.1-.375 7.275h-9.375c-.375-1.2-.375-2.7-.375-3.9h-.15c-3.075 3.9-6 4.875-10.65 4.875-6.75 0-7.875-5.775-6.825-10.8 1.5-7.05 5.025-9.975 12.075-11.775l5.775-1.5c3.075-.75 4.275-1.875 4.8-4.425.6-2.85-.3-4.65-3.525-4.65-2.925 0-4.875 1.95-5.55 4.875l-.225 1.05H267.6v.075zm16.125 7.275c-1.575.975-3.3 1.65-4.575 1.875-4.125.825-6.075 2.7-6.75 6.075-.6 2.85-.075 5.25 2.55 5.25s6.3-1.65 7.2-5.85l1.575-7.35zM302.55 13.125h9.225l-1.05 5.025h.15c2.775-3.675 6-6 9.975-6 .525 0 1.2.075 1.725.15l-1.95 9.3c-.975-.075-2.025-.15-3-.15-3.375 0-7.5 1.725-8.625 6.825l-4.8 22.65h-9.675l8.025-37.8zM324.675 13.125h9.225l-1.05 5.025h.15c2.775-3.675 6-6 9.975-6 .525 0 1.2.075 1.725.15l-1.95 9.225c-.975-.075-2.025-.15-3-.15-3.375 0-7.5 1.725-8.625 6.825l-4.8 22.65h-9.675l8.025-37.725zM347.175 13.125h9.675l-8.025 37.725h-9.675l8.025-37.725zm2.7-12.9h9.675l-1.8 8.25h-9.675l1.8-8.25zM366.3 33.525l-.675 3c-.975 4.425-.675 8.775 2.925 8.775 3.225 0 5.1-2.475 6.6-7.05h8.7c-2.25 8.775-7.5 13.65-16.575 13.65-14.025 0-12.3-10.8-10.275-20.175 2.175-10.125 6.15-19.5 19.2-19.5 11.325 0 12.225 7.575 9.75 19.125l-.45 2.175h-19.2zm11.1-5.775c1.05-5.775.975-9-3-9-3.825 0-5.85 3.975-6.6 7.5l-.3 1.5h9.9zM393.6 13.125h9.225l-1.05 5.025h.15c2.775-3.675 6-6 9.975-6 .525 0 1.2.075 1.725.15l-1.95 9.225c-.975-.075-2.025-.15-3-.15-3.375 0-7.5 1.725-8.625 6.825l-4.8 22.65h-9.675l8.025-37.725z" fill="#231f20" fill-rule="nonzero"/><path d="M2.4 66c-.675 0-1.275-.225-1.725-.675C.225 64.875 0 64.35 0 63.6c0-.675.225-1.275.675-1.725.45-.45.975-.675 1.725-.675.675 0 1.275.225 1.725.675.45.45.675.975.675 1.725 0 .675-.225 1.275-.675 1.725-.45.45-1.05.675-1.725.675m0 7.125c-.675 0-1.275-.225-1.725-.675C.225 72 0 71.475 0 70.725c0-.75.225-1.275.675-1.725.45-.45.975-.675 1.725-.675.675 0 1.275.225 1.725.675.45.45.675.975.675 1.725 0 .75-.225 1.275-.675 1.725-.45.45-1.05.675-1.725.675M20.7 65.475c-.45-.45-.675-.975-.675-1.725 0-.675.225-1.275.675-1.725.45-.45.975-.675 1.725-.675.675 0 1.275.225 1.725.675.45.45.675.975.675 1.725 0 .675-.225 1.275-.675 1.725-.45.45-.975.675-1.725.675-.75-.075-1.275-.3-1.725-.675m0 7.05c-.45-.45-.675-.975-.675-1.725 0-.675.225-1.275.675-1.725.45-.45.975-.675 1.725-.675.675 0 1.275.225 1.725.675.45.45.675.975.675 1.725 0 .675-.225 1.275-.675 1.725-.45.45-.975.675-1.725.675-.75-.075-1.275-.3-1.725-.675m0 6.9c-.45-.45-.675-.975-.675-1.725 0-.675.225-1.275.675-1.65.45-.375.975-.6 1.725-.6.675 0 1.275.225 1.725.6.45.375.675.975.675 1.65 0 .675-.225 1.275-.675 1.725-.45.45-.975.675-1.725.675-.75 0-1.275-.225-1.725-.675m7.05-6.9c-.45-.45-.675-.975-.675-1.725 0-.675.225-1.275.675-1.725.45-.45.975-.675 1.725-.675.675 0 1.275.225 1.725.675.45.45.675.975.675 1.725 0 .675-.225 1.275-.675 1.725-.45.45-.975.675-1.725.675-.75-.075-1.35-.3-1.725-.675M42.6 65.925c-.675 0-1.275-.225-1.725-.675-.45-.45-.675-.975-.675-1.725 0-.675.225-1.275.675-1.725.45-.45.975-.675 1.725-.675.675 0 1.275.225 1.725.675.45.45.675.975.675 1.725 0 .675-.225 1.275-.675 1.725-.45.45-1.05.675-1.725.675M61.125 72.375c-.45-.45-.675-.975-.675-1.725 0-.675.225-1.275.675-1.725.45-.45.975-.675 1.725-.675.675 0 1.275.225 1.725.675.45.45.675.975.675 1.725 0 .675-.225 1.275-.675 1.725-.45.45-.975.675-1.725.675-.75 0-1.35-.225-1.725-.675m6.975-7.05c-.45-.45-.675-.975-.675-1.725 0-.675.225-1.275.675-1.725.45-.45.975-.675 1.725-.675.675 0 1.275.225 1.725.675.45.45.675.975.675 1.725 0 .675-.225 1.275-.675 1.725-.45.45-.975.675-1.725.675-.675 0-1.275-.225-1.725-.675M82.875 66.075c-.675 0-1.275-.225-1.725-.675-.45-.45-.675-.975-.675-1.725 0-.675.225-1.275.675-1.725.45-.45.975-.675 1.725-.675.675 0 1.275.225 1.725.675.45.45.675.975.675 1.725 0 .675-.225 1.275-.675 1.725-.45.45-.975.675-1.725.675m0 7.05c-.675 0-1.275-.225-1.725-.675-.45-.45-.675-.975-.675-1.725 0-.675.225-1.275.675-1.725.45-.45.975-.675 1.725-.675.675 0 1.275.225 1.725.675.45.45.675.975.675 1.725 0 .675-.225 1.275-.675 1.725-.45.45-.975.675-1.725.675m0 6.9c-.675 0-1.275-.225-1.725-.675-.45-.45-.675-.975-.675-1.725 0-.675.225-1.275.675-1.65.45-.375.975-.6 1.725-.6.675 0 1.275.225 1.725.6.45.375.675.975.675 1.65 0 .675-.225 1.275-.675 1.725-.45.525-.975.675-1.725.675M101.175 65.475c-.45-.45-.675-.975-.675-1.725 0-.675.225-1.275.675-1.725.45-.45.975-.675 1.725-.675.675 0 1.275.225 1.725.675.45.45.675.975.675 1.725 0 .675-.225 1.275-.675 1.725-.45.45-.975.675-1.725.675-.675-.075-1.275-.3-1.725-.675m7.05 7.05c-.45-.45-.675-.975-.675-1.725 0-.675.225-1.275.675-1.725.45-.45.975-.675 1.725-.675.675 0 1.275.225 1.725.675.45.45.675.975.675 1.725 0 .675-.225 1.275-.675 1.725-.45.45-.975.675-1.725.675-.75-.075-1.275-.3-1.725-.675M133.725 65.925c-.675 0-1.275-.225-1.725-.675-.45-.45-.675-.975-.675-1.725 0-.675.225-1.275.675-1.725.45-.45.975-.675 1.725-.675.675 0 1.275.225 1.725.675.45.45.675.975.675 1.725 0 .675-.225 1.275-.675 1.725-.45.45-.975.675-1.725.675M152.175 72.45c-.45-.45-.675-.975-.675-1.725 0-.75.225-1.275.675-1.725.45-.45.975-.675 1.725-.675.675 0 1.275.225 1.725.675.45.45.675.975.675 1.725 0 .75-.225 1.275-.675 1.725-.45.45-.975.675-1.725.675-.75 0-1.275-.225-1.725-.675m0 7.05c-.45-.45-.675-.975-.675-1.725 0-.675.225-1.275.675-1.65.45-.375.975-.6 1.725-.6.675 0 1.275.225 1.725.6.45.375.675.975.675 1.65 0 .675-.225 1.275-.675 1.725-.45.45-.975.675-1.725.675-.75-.075-1.275-.3-1.725-.675m7.05-14.025c-.45-.45-.675-.975-.675-1.725 0-.675.225-1.275.675-1.725.45-.45.975-.675 1.725-.675.675 0 1.275.225 1.725.675.45.45.675.975.675 1.725 0 .675-.225 1.275-.675 1.725-.45.45-.975.675-1.725.675-.75-.075-1.275-.3-1.725-.675m0 6.975c-.45-.45-.675-.975-.675-1.725 0-.75.225-1.275.675-1.725.45-.45.975-.675 1.725-.675.675 0 1.275.225 1.725.675.45.45.675.975.675 1.725 0 .75-.225 1.275-.675 1.725-.45.45-.975.675-1.725.675-.75 0-1.275-.225-1.725-.675M184.5 66c-.675 0-1.275-.225-1.725-.675-.45-.45-.675-.975-.675-1.725 0-.675.225-1.275.675-1.725.45-.45.975-.675 1.725-.675.675 0 1.275.225 1.725.675.45.45.675.975.675 1.725 0 .675-.225 1.275-.675 1.725-.45.45-1.05.675-1.725.675m0 7.125c-.675 0-1.275-.225-1.725-.675-.45-.45-.675-.975-.675-1.725 0-.75.225-1.275.675-1.725.45-.45.975-.675 1.725-.675.675 0 1.275.225 1.725.675.45.45.675.975.675 1.725 0 .75-.225 1.275-.675 1.725-.45.45-1.05.675-1.725.675M204.6 65.925c-.675 0-1.275-.225-1.725-.675-.45-.45-.675-.975-.675-1.725 0-.675.225-1.275.675-1.725.45-.45.975-.675 1.725-.675.75 0 1.275.225 1.725.675.45.45.675.975.675 1.725 0 .675-.225 1.275-.675 1.725-.45.45-1.05.675-1.725.675M222.975 65.475c-.45-.45-.675-.975-.675-1.725 0-.675.225-1.275.675-1.725.45-.45.975-.675 1.725-.675.675 0 1.275.225 1.725.675.45.45.675.975.675 1.725 0 .675-.225 1.275-.675 1.725-.45.45-.975.675-1.725.675-.75-.075-1.35-.3-1.725-.675m0 7.05c-.45-.45-.675-.975-.675-1.725 0-.675.225-1.275.675-1.725.45-.45.975-.675 1.725-.675.675 0 1.275.225 1.725.675.45.45.675.975.675 1.725 0 .675-.225 1.275-.675 1.725-.45.45-.975.675-1.725.675-.75-.075-1.35-.3-1.725-.675m0 6.9c-.45-.45-.675-.975-.675-1.725 0-.675.225-1.275.675-1.65.45-.375.975-.6 1.725-.6.675 0 1.275.225 1.725.6.45.375.675.975.675 1.65 0 .675-.225 1.275-.675 1.725-.45.45-.975.675-1.725.675-.75 0-1.35-.225-1.725-.675m6.975-6.9c-.45-.45-.675-.975-.675-1.725 0-.675.225-1.275.675-1.725.45-.45.975-.675 1.725-.675.75 0 1.275.225 1.725.675.45.45.675.975.675 1.725 0 .675-.225 1.275-.675 1.725-.45.45-.975.675-1.725.675-.675-.075-1.275-.3-1.725-.675M243 65.475c-.45-.45-.675-.975-.675-1.725 0-.675.225-1.275.675-1.725.45-.45.975-.675 1.725-.675.75 0 1.275.225 1.725.675.45.45.675.975.675 1.725 0 .675-.225 1.275-.675 1.725-.45.45-.975.675-1.725.675-.675-.075-1.275-.3-1.725-.675m0 7.05c-.45-.45-.675-.975-.675-1.725 0-.675.225-1.275.675-1.725.45-.45.975-.675 1.725-.675.75 0 1.275.225 1.725.675.45.45.675.975.675 1.725 0 .675-.225 1.275-.675 1.725-.45.45-.975.675-1.725.675-.675-.075-1.275-.3-1.725-.675m0 6.9c-.45-.45-.675-.975-.675-1.725 0-.675.225-1.275.675-1.65.45-.375.975-.6 1.725-.6.75 0 1.275.225 1.725.6.45.375.675.975.675 1.65 0 .675-.225 1.275-.675 1.725-.45.45-.975.675-1.725.675-.675 0-1.275-.225-1.725-.675m7.05-6.9c-.45-.45-.675-.975-.675-1.725 0-.675.225-1.275.675-1.725.45-.45.975-.675 1.725-.675.675 0 1.275.225 1.725.675.45.45.675.975.675 1.725 0 .675-.225 1.275-.675 1.725-.45.45-.975.675-1.725.675-.675-.075-1.275-.3-1.725-.675M263.25 72.375c-.45-.45-.675-.975-.675-1.725 0-.675.225-1.275.675-1.725.45-.45.975-.675 1.725-.675.675 0 1.275.225 1.725.675.45.45.675.975.675 1.725 0 .675-.225 1.275-.675 1.725-.45.45-.975.675-1.725.675-.675 0-1.275-.225-1.725-.675m7.05-7.05c-.45-.45-.675-.975-.675-1.725 0-.675.225-1.275.675-1.725.45-.45.975-.675 1.725-.675.675 0 1.275.225 1.725.675.45.45.675.975.675 1.725 0 .675-.225 1.275-.675 1.725-.45.45-.975.675-1.725.675-.675 0-1.275-.225-1.725-.675M283.275 65.475c-.45-.45-.675-.975-.675-1.725 0-.675.225-1.275.675-1.725.45-.45.975-.675 1.725-.675.675 0 1.275.225 1.725.675.45.45.675.975.675 1.725 0 .675-.225 1.275-.675 1.725-.45.45-.975.675-1.725.675-.675-.075-1.275-.3-1.725-.675m7.05 7.05c-.45-.45-.675-.975-.675-1.725 0-.675.225-1.275.675-1.725.45-.45.975-.675 1.725-.675.675 0 1.275.225 1.725.675.45.45.675.975.675 1.725 0 .675-.225 1.275-.675 1.725-.45.45-.975.675-1.725.675-.75-.075-1.275-.3-1.725-.675M303.3 65.475c-.45-.45-.675-.975-.675-1.725 0-.675.225-1.275.675-1.725.45-.45.975-.675 1.725-.675.675 0 1.275.225 1.725.675.45.45.675.975.675 1.725 0 .675-.225 1.275-.675 1.725-.45.45-.975.675-1.725.675-.75-.075-1.275-.3-1.725-.675m0 7.05c-.45-.45-.675-.975-.675-1.725 0-.675.225-1.275.675-1.725.45-.45.975-.675 1.725-.675.675 0 1.275.225 1.725.675.45.45.675.975.675 1.725 0 .675-.225 1.275-.675 1.725-.45.45-.975.675-1.725.675-.75-.075-1.275-.3-1.725-.675m0 6.9c-.45-.45-.675-.975-.675-1.725 0-.675.225-1.275.675-1.65.45-.375.975-.6 1.725-.6.675 0 1.275.225 1.725.6.45.375.675.975.675 1.65 0 .675-.225 1.275-.675 1.725-.45.45-.975.675-1.725.675-.75 0-1.275-.225-1.725-.675m7.05-6.9c-.45-.45-.675-.975-.675-1.725 0-.675.225-1.275.675-1.725.45-.45.975-.675 1.725-.675.675 0 1.275.225 1.725.675.45.45.675.975.675 1.725 0 .675-.225 1.275-.675 1.725-.45.45-.975.675-1.725.675-.75-.075-1.35-.3-1.725-.675" fill="#b8b8b8" fill-rule="nonzero"/></svg>