<svg clip-rule="evenodd" fill-rule="evenodd" stroke-linejoin="round" stroke-miterlimit="2" viewBox="0 0 24 24" xmlns="http://www.w3.org/2000/svg"><path d="m18.249 6.048h1.714l-4.924 8.757c-.343.623-.654 1.277-.748 1.745-.093.436.125.747.655.747 2.648 0 6.169-4.113 6.855-7.229.997-4.674-2.649-7.759-7.261-7.759-5.889 0-11.062 4.518-12.184 9.691-1.153 5.36 2.369 9.691 8.04 9.691 3.21 0 6.918-1.589 9.068-4.113h1.776c-2.742 3.334-7.105 5.422-11.156 5.422-6.575 0-10.532-4.986-9.255-11 1.309-6.108 7.573-11 13.93-11 5.796 0 9.597 3.833 8.444 9.161-.966 4.581-5.64 8.445-8.85 8.445-1.121 0-1.932-.623-1.589-2.025h-.062c-1.652 1.34-2.992 2.025-4.643 2.025-2.337 0-3.584-1.682-2.992-4.394.873-4.113 4.862-8.694 9.131-8.694 1.402 0 2.555.655 2.804 2.462h.063zm-9.629 11.094c3.178 0 6.481-4.519 7.073-7.261.405-1.932-.155-2.867-1.963-2.867-3.209 0-6.419 4.238-7.011 7.074-.374 1.838.125 3.054 1.901 3.054z" fill="#27aae1" fill-rule="nonzero"/></svg>