<svg viewBox="0 0 24 24" xmlns="http://www.w3.org/2000/svg" fill-rule="evenodd" clip-rule="evenodd" stroke-linejoin="round" stroke-miterlimit="2"><path d="M18.249 6.048h1.714l-4.924 8.757c-.343.623-.654 1.277-.748 1.745-.093.436.125.747.655.747 2.648 0 6.169-4.113 6.855-7.229.997-4.674-2.649-7.759-7.261-7.759C8.651 2.309 3.478 6.827 2.356 12c-1.153 5.36 2.369 9.691 8.04 9.691 3.21 0 6.918-1.589 9.068-4.113h1.776C18.498 20.912 14.135 23 10.084 23 3.509 23-.448 18.014.829 12 2.138 5.892 8.402 1 14.759 1c5.796 0 9.597 3.833 8.444 9.161-.966 4.581-5.64 8.445-8.85 8.445-1.121 0-1.932-.623-1.589-2.025h-.062c-1.652 1.34-2.992 2.025-4.643 2.025-2.337 0-3.584-1.682-2.992-4.394.873-4.113 4.862-8.694 9.131-8.694 1.402 0 2.555.655 2.804 2.462h.063l1.184-1.932zM8.62 17.142c3.178 0 6.481-4.519 7.073-7.261.405-1.932-.155-2.867-1.963-2.867-3.209 0-6.419 4.238-7.011 7.074-.374 1.838.125 3.054 1.901 3.054z" fill="#27aae1" fill-rule="nonzero"/></svg>