<svg viewBox="0 0 489 142" xmlns="http://www.w3.org/2000/svg" fill-rule="evenodd" clip-rule="evenodd" stroke-linejoin="round" stroke-miterlimit="2"><path d="M37.275 49.125c-.15 5.775-.225 9.15-1.875 13.5-3 6.45-9.075 10.275-16.575 10.2C10.35 72.825.6 67.275 0 54.6h6.825c.525 7.725 6.15 11.775 12.075 11.775 11.175-.075 11.325-10.5 11.325-17.025L30.45.525h6.975l-.15 48.6zM59.025.75L58.8 45.075c0 5.175.75 9.9 2.325 12.9 4.2 8.025 11.025 8.775 14.325 8.85 3.3 0 10.125-.75 14.4-8.7 1.575-3 2.4-7.65 2.4-12.825L92.4.975h6.975L99.15 45.3c0 5.925-.975 11.025-2.7 14.775-4.8 10.65-14.625 13.2-21.075 13.2-6.525 0-16.275-2.625-21-13.35-1.65-3.75-2.625-8.85-2.55-14.775L52.05.825 59.025.75zM109.2 65.625l34.425-58.05-33.15-.15V.975l40.95.225v6.45l-34.35 58.05 35.1.15v6.45l-43.05-.225.075-6.45zM161.625 1.2h7.725l24.225 62.4 24.9-62.175 7.5.075L196.8 72.45h-6.825L161.625 1.2zM312.45 1.875h6.975l-.3 64.65 28.725.15v6.45l-35.7-.15.3-71.1zM360.3 8.55l-15.975-.075.075-6.45 38.775.15v6.45L367.2 8.55l-.3 64.65h-6.975l.375-64.65zM390.375 2.25l38.025.15v6.45l-31.05-.15-.075 25.575 30.075.15v6.45l-30.075-.15-.15 26.25 31.05.15v6.45l-38.025-.15.225-71.175zM440.7 2.475l17.625.075c9.3.075 13.875 1.2 17.1 2.775 7.8 3.75 12.375 11.55 12.3 20.325-.075 10.275-7.35 20.7-20.775 21.525l19.5 26.625-8.7-.075-23.4-32.325c8.85.075 11.85 0 14.925-.975 7.575-2.175 11.475-8.7 11.55-15 0-5.55-3.075-11.325-7.575-13.65-4.125-2.25-7.65-2.7-13.5-2.775l-12.15-.075-.3 64.65h-6.975l.375-71.1zM29.4 126.45c0 2.85 0 6.375-2.325 9.6-3.225 4.575-9.15 4.8-10.2 4.8-3.675 0-10.8-1.425-13.125-9.675H7.2c.825 2.175 3.375 6.6 9.6 6.6 4.35 0 9.3-2.55 9.3-9.75V125.7h-.075c-1.95 3.75-6.15 5.4-9.9 5.4-6.75 0-13.425-5.4-13.425-13.65 0-8.325 6.675-13.875 13.425-13.875 2.325 0 6.975.75 9.9 5.4h.075v-4.725h3.3v22.2zm-13.275 1.725c6.825 0 10.2-6.225 10.2-10.725 0-5.775-4.425-10.8-10.2-10.8-5.85 0-10.125 5.025-10.125 10.8 0 5.7 4.275 10.725 10.125 10.725zM35.625 104.325h3.3v3.825H39c1.575-3.675 4.425-4.275 7.2-4.425v3.525c-2.325.225-4.275 1.05-5.55 2.55-1.125 1.425-1.8 3.3-1.8 5.4v15.375h-3.3l.075-26.25zM75.75 130.65h-3.3v-4.575h-.075c-2.85 4.35-7.35 5.25-9.975 5.25-8.1 0-13.8-6.3-13.8-13.875 0-6.975 5.4-13.725 13.8-13.725 2.775 0 7.275.9 9.975 5.325h.075v-4.575h3.3v26.175zm-13.35-2.4c5.55 0 10.275-4.575 10.275-10.725 0-5.775-4.35-10.8-10.275-10.8-5.625 0-10.5 4.125-10.5 10.8 0 5.85 4.2 10.65 10.5 10.725zM81.675 104.4h3.3v4.575h.075c2.925-4.35 7.2-5.25 9.975-5.25 8.4 0 13.8 6.75 13.8 13.725 0 7.5-5.775 13.8-13.8 13.8-2.7 0-7.125-.975-9.975-5.25h-.075v13.8h-3.3v-35.4zm13.425 2.4c-5.925 0-10.275 5.025-10.275 10.8 0 6.15 4.725 10.725 10.275 10.725 6.3 0 10.5-4.8 10.5-10.65 0-6.75-4.875-10.875-10.5-10.875zM113.625 95.175h3.3v12.6H117c.975-1.575 3.525-4.05 7.875-4.05 3.15 0 5.775.825 8.1 3.225 1.95 1.95 3.15 4.95 3.15 9.3v14.475h-3.3V116.25c0-3.375-1.05-5.775-2.4-7.2-1.8-1.8-4.125-2.25-5.55-2.25-1.425 0-3.825.45-5.55 2.25-1.425 1.425-2.475 3.75-2.4 7.2v14.475h-3.3v-35.55zM142.35 104.475h3.3v26.25h-3.3v-26.25zm0-9.225h3.3v6.075h-3.3V95.25zM177.15 123.075c-1.65 3.225-5.1 8.325-12.75 8.325-8.025 0-13.8-6.375-13.8-13.725 0-7.575 6.15-13.8 13.8-13.8 4.5 0 10.275 2.325 12.75 8.625h-3.6c-2.025-3.975-5.775-5.55-9.075-5.55-5.025 0-10.575 3.825-10.65 10.65 0 5.925 4.425 10.8 10.575 10.8 5.325 0 8.025-3.3 9.075-5.325h3.675zM220.95 130.875h-3.3V126.3h-.075c-2.7 4.2-7.275 5.25-9.975 5.25-8.1 0-13.8-6.3-13.8-13.875 0-6.975 5.4-13.725 13.8-13.725 2.85 0 7.2 1.05 9.975 5.175h.075v-13.8h3.3v35.55zM207.6 128.4c5.55 0 10.275-4.575 10.275-10.725 0-5.775-4.35-10.8-10.275-10.8-5.625 0-10.5 4.125-10.5 10.8 0 5.925 4.2 10.725 10.5 10.725zM229.275 118.95c.225 5.1 4.875 9.525 9.9 9.525 4.725-.075 8.025-2.925 9.225-6.15h3.45c-1.8 5.25-6.75 9.225-12.6 9.225-7.2 0-13.35-6-13.35-13.725 0-7.425 5.85-13.65 13.35-13.8 5.625.075 9.6 3.45 11.4 6.75 1.725 2.85 2.1 5.775 1.95 8.325l-23.325-.15zm20.025-3c-1.05-6.225-5.925-9-10.05-9-4.05 0-9.075 2.775-9.975 8.925l20.025.075zM259.05 123.15c.075 5.025 3.45 5.4 4.575 5.4 3.075 0 4.8-1.875 4.8-4.725 0-3.6-3.15-4.425-5.1-5.25-2.625-.9-6.825-2.325-6.825-7.275 0-3.675 2.625-7.275 7.35-7.275 3.825 0 7.05 3 6.975 7.125h-3.3c-.225-3.225-2.4-4.125-3.825-4.125-2.625 0-3.9 2.175-3.9 3.9 0 2.775 2.7 3.75 4.575 4.35 3 1.05 7.35 2.7 7.275 8.1.075 4.5-2.625 8.1-8.1 8.1-3.6 0-8.025-2.475-7.875-8.4l3.375.075zM275.85 104.7h3.3v26.25h-3.3V104.7zm.075-9.3h3.3v6.075h-3.3V95.4zM310.575 126.825c0 2.85 0 6.375-2.325 9.6-3.225 4.575-9.15 4.8-10.2 4.8-3.675 0-10.8-1.425-13.125-9.675h3.45c.825 2.175 3.375 6.6 9.6 6.6 4.35 0 9.3-2.55 9.3-9.75v-2.325h-.075c-1.95 3.75-6.15 5.4-9.9 5.4-6.75 0-13.425-5.4-13.425-13.65 0-8.325 6.675-13.875 13.425-13.875 2.325 0 6.975.75 9.9 5.4h.075v-4.725h3.3v22.2zM297.3 128.55c6.825 0 10.2-6.225 10.2-10.725 0-5.775-4.425-10.8-10.2-10.8-5.85 0-10.125 5.025-10.125 10.8 0 5.7 4.35 10.725 10.125 10.725zM316.8 104.7h3.3v3.375h.075c.975-1.575 3.525-4.05 7.875-4.05 3.15 0 5.775.825 8.1 3.225 1.95 1.95 3.15 4.95 3.15 9.3v14.475H336V116.55c0-3.375-1.05-5.775-2.4-7.2-1.8-1.8-4.125-2.25-5.55-2.25-1.425 0-3.825.45-5.55 2.25-1.425 1.425-2.475 3.75-2.4 7.2v14.475h-3.3V104.7zM359.775 123.3c.075 5.025 3.45 5.4 4.575 5.4 3.075 0 4.8-1.875 4.8-4.725 0-3.6-3.15-4.425-5.1-5.25-2.625-.9-6.825-2.325-6.825-7.275 0-3.675 2.625-7.275 7.35-7.275 3.825 0 7.05 3 6.975 7.125h-3.3c-.225-3.225-2.4-4.125-3.825-4.125-2.625 0-3.9 2.175-3.9 3.9 0 2.775 2.7 3.75 4.575 4.35 3 .975 7.35 2.7 7.275 8.1.075 4.5-2.625 8.1-8.1 8.1-3.6 0-8.025-2.475-7.875-8.4l3.375.075zM379.65 107.85h-5.4v-3h5.4v-9.225h3.3v9.225h6.15v3h-6.15v23.25h-3.3v-23.25zM414.825 131.1h-3.075v-4.05h-.075c-.975 1.95-3.45 4.725-8.25 4.725-5.1 0-7.725-2.475-8.85-3.975-1.8-2.325-2.25-5.7-2.25-8.475V104.85h3.3v14.475c0 3.3.675 5.475 1.8 6.9 1.8 2.1 4.2 2.475 5.925 2.475 1.8 0 3.825-.45 5.475-2.1 1.5-1.5 2.7-3.225 2.7-7.875V104.85h3.3v26.25zM446.925 131.175h-3.3V126.6h-.075c-2.7 4.2-7.275 5.25-9.975 5.25-8.1 0-13.8-6.3-13.8-13.875 0-6.975 5.4-13.725 13.8-13.725 2.85 0 7.2 1.05 9.975 5.175h.075v-13.8h3.3v35.55zm-13.35-2.4c5.55 0 10.275-4.575 10.275-10.65 0-5.775-4.35-10.8-10.275-10.8-5.625 0-10.5 4.125-10.5 10.8 0 5.85 4.2 10.65 10.5 10.65zM453.15 104.925h3.3v26.25h-3.3v-26.25zm0-9.225h3.3v6.075h-3.3V95.7zM474.825 104.25c7.575 0 13.425 6.6 13.425 13.8 0 7.125-5.775 13.8-13.5 13.725-7.5 0-13.35-6.525-13.35-13.575.075-8.25 6.675-13.95 13.425-13.95zm0 24.525c4.95 0 10.125-4.05 10.125-10.875 0-6.9-5.7-10.65-10.125-10.65-4.725 0-10.125 3.9-10.125 10.875 0 6.15 4.875 10.65 10.125 10.65z" fill-rule="nonzero"/><path d="M263.025 6.45c-15.675-.075-29.85 12.975-29.925 30.6-.075 16.275 13.5 30.075 29.625 30.15 16.05.075 29.925-13.2 30-30.15.075-16.65-13.275-30.525-29.7-30.6z" fill="#d48627" fill-rule="nonzero"/><path d="M263.025 0c-18.525-.075-36.75 14.625-36.9 36.975C226.05 57 243 73.5 262.725 73.575c19.425.075 36.9-15.675 36.975-36.675.075-20.85-17.1-36.825-36.675-36.9zM233.1 37.05c.075-17.7 14.175-30.675 29.925-30.6 16.425.075 29.775 13.95 29.7 30.6-.075 16.875-13.95 30.225-30 30.15-16.125-.075-29.7-13.875-29.625-30.15z" fill-rule="nonzero"/></svg>