<svg clip-rule="evenodd" fill-rule="evenodd" stroke-linejoin="round" stroke-miterlimit="2" viewBox="0 0 489 142" xmlns="http://www.w3.org/2000/svg"><g fill-rule="nonzero"><path d="m37.275 49.125c-.15 5.775-.225 9.15-1.875 13.5-3 6.45-9.075 10.275-16.575 10.2-8.475 0-18.225-5.55-18.825-18.225h6.825c.525 7.725 6.15 11.775 12.075 11.775 11.175-.075 11.325-10.5 11.325-17.025l.225-48.825h6.975zm21.75-48.375-.225 44.325c0 5.175.75 9.9 2.325 12.9 4.2 8.025 11.025 8.775 14.325 8.85 3.3 0 10.125-.75 14.4-8.7 1.575-3 2.4-7.65 2.4-12.825l.15-44.325h6.975l-.225 44.325c0 5.925-.975 11.025-2.7 14.775-4.8 10.65-14.625 13.2-21.075 13.2-6.525 0-16.275-2.625-21-13.35-1.65-3.75-2.625-8.85-2.55-14.775l.225-44.325zm50.175 64.875 34.425-58.05-33.15-.15v-6.45l40.95.225v6.45l-34.35 58.05 35.1.15v6.45l-43.05-.225zm52.425-64.425h7.725l24.225 62.4 24.9-62.175 7.5.075-29.175 70.95h-6.825zm150.825.675h6.975l-.3 64.65 28.725.15v6.45l-35.7-.15.3-71.1zm47.85 6.675-15.975-.075.075-6.45 38.775.15v6.45l-15.975-.075-.3 64.65h-6.975zm30.075-6.3 38.025.15v6.45l-31.05-.15-.075 25.575 30.075.15v6.45l-30.075-.15-.15 26.25 31.05.15v6.45l-38.025-.15zm50.325.225 17.625.075c9.3.075 13.875 1.2 17.1 2.775 7.8 3.75 12.375 11.55 12.3 20.325-.075 10.275-7.35 20.7-20.775 21.525l19.5 26.625-8.7-.075-23.4-32.325c8.85.075 11.85 0 14.925-.975 7.575-2.175 11.475-8.7 11.55-15 0-5.55-3.075-11.325-7.575-13.65-4.125-2.25-7.65-2.7-13.5-2.775l-12.15-.075-.3 64.65h-6.975l.375-71.1zm-411.3 123.975c0 2.85 0 6.375-2.325 9.6-3.225 4.575-9.15 4.8-10.2 4.8-3.675 0-10.8-1.425-13.125-9.675h3.45c.825 2.175 3.375 6.6 9.6 6.6 4.35 0 9.3-2.55 9.3-9.75v-2.325h-.075c-1.95 3.75-6.15 5.4-9.9 5.4-6.75 0-13.425-5.4-13.425-13.65 0-8.325 6.675-13.875 13.425-13.875 2.325 0 6.975.75 9.9 5.4h.075v-4.725h3.3zm-13.275 1.725c6.825 0 10.2-6.225 10.2-10.725 0-5.775-4.425-10.8-10.2-10.8-5.85 0-10.125 5.025-10.125 10.8 0 5.7 4.275 10.725 10.125 10.725zm19.5-23.85h3.3v3.825h.075c1.575-3.675 4.425-4.275 7.2-4.425v3.525c-2.325.225-4.275 1.05-5.55 2.55-1.125 1.425-1.8 3.3-1.8 5.4v15.375h-3.3zm40.125 26.325h-3.3v-4.575h-.075c-2.85 4.35-7.35 5.25-9.975 5.25-8.1 0-13.8-6.3-13.8-13.875 0-6.975 5.4-13.725 13.8-13.725 2.775 0 7.275.9 9.975 5.325h.075v-4.575h3.3zm-13.35-2.4c5.55 0 10.275-4.575 10.275-10.725 0-5.775-4.35-10.8-10.275-10.8-5.625 0-10.5 4.125-10.5 10.8 0 5.85 4.2 10.65 10.5 10.725zm19.275-23.85h3.3v4.575h.075c2.925-4.35 7.2-5.25 9.975-5.25 8.4 0 13.8 6.75 13.8 13.725 0 7.5-5.775 13.8-13.8 13.8-2.7 0-7.125-.975-9.975-5.25h-.075v13.8h-3.3zm13.425 2.4c-5.925 0-10.275 5.025-10.275 10.8 0 6.15 4.725 10.725 10.275 10.725 6.3 0 10.5-4.8 10.5-10.65 0-6.75-4.875-10.875-10.5-10.875zm18.525-11.625h3.3v12.6h.075c.975-1.575 3.525-4.05 7.875-4.05 3.15 0 5.775.825 8.1 3.225 1.95 1.95 3.15 4.95 3.15 9.3v14.475h-3.3v-14.475c0-3.375-1.05-5.775-2.4-7.2-1.8-1.8-4.125-2.25-5.55-2.25s-3.825.45-5.55 2.25c-1.425 1.425-2.475 3.75-2.4 7.2v14.475h-3.3zm28.725 9.3h3.3v26.25h-3.3zm0-9.225h3.3v6.075h-3.3zm34.8 27.825c-1.65 3.225-5.1 8.325-12.75 8.325-8.025 0-13.8-6.375-13.8-13.725 0-7.575 6.15-13.8 13.8-13.8 4.5 0 10.275 2.325 12.75 8.625h-3.6c-2.025-3.975-5.775-5.55-9.075-5.55-5.025 0-10.575 3.825-10.65 10.65 0 5.925 4.425 10.8 10.575 10.8 5.325 0 8.025-3.3 9.075-5.325zm43.8 7.8h-3.3v-4.575h-.075c-2.7 4.2-7.275 5.25-9.975 5.25-8.1 0-13.8-6.3-13.8-13.875 0-6.975 5.4-13.725 13.8-13.725 2.85 0 7.2 1.05 9.975 5.175h.075v-13.8h3.3zm-13.35-2.475c5.55 0 10.275-4.575 10.275-10.725 0-5.775-4.35-10.8-10.275-10.8-5.625 0-10.5 4.125-10.5 10.8 0 5.925 4.2 10.725 10.5 10.725zm21.675-9.45c.225 5.1 4.875 9.525 9.9 9.525 4.725-.075 8.025-2.925 9.225-6.15h3.45c-1.8 5.25-6.75 9.225-12.6 9.225-7.2 0-13.35-6-13.35-13.725 0-7.425 5.85-13.65 13.35-13.8 5.625.075 9.6 3.45 11.4 6.75 1.725 2.85 2.1 5.775 1.95 8.325zm20.025-3c-1.05-6.225-5.925-9-10.05-9-4.05 0-9.075 2.775-9.975 8.925zm9.75 7.2c.075 5.025 3.45 5.4 4.575 5.4 3.075 0 4.8-1.875 4.8-4.725 0-3.6-3.15-4.425-5.1-5.25-2.625-.9-6.825-2.325-6.825-7.275 0-3.675 2.625-7.275 7.35-7.275 3.825 0 7.05 3 6.975 7.125h-3.3c-.225-3.225-2.4-4.125-3.825-4.125-2.625 0-3.9 2.175-3.9 3.9 0 2.775 2.7 3.75 4.575 4.35 3 1.05 7.35 2.7 7.275 8.1.075 4.5-2.625 8.1-8.1 8.1-3.6 0-8.025-2.475-7.875-8.4zm16.8-18.45h3.3v26.25h-3.3zm.075-9.3h3.3v6.075h-3.3zm34.65 31.425c0 2.85 0 6.375-2.325 9.6-3.225 4.575-9.15 4.8-10.2 4.8-3.675 0-10.8-1.425-13.125-9.675h3.45c.825 2.175 3.375 6.6 9.6 6.6 4.35 0 9.3-2.55 9.3-9.75v-2.325h-.075c-1.95 3.75-6.15 5.4-9.9 5.4-6.75 0-13.425-5.4-13.425-13.65 0-8.325 6.675-13.875 13.425-13.875 2.325 0 6.975.75 9.9 5.4h.075v-4.725h3.3zm-13.275 1.725c6.825 0 10.2-6.225 10.2-10.725 0-5.775-4.425-10.8-10.2-10.8-5.85 0-10.125 5.025-10.125 10.8 0 5.7 4.35 10.725 10.125 10.725zm19.5-23.85h3.3v3.375h.075c.975-1.575 3.525-4.05 7.875-4.05 3.15 0 5.775.825 8.1 3.225 1.95 1.95 3.15 4.95 3.15 9.3v14.475h-3.3v-14.475c0-3.375-1.05-5.775-2.4-7.2-1.8-1.8-4.125-2.25-5.55-2.25s-3.825.45-5.55 2.25c-1.425 1.425-2.475 3.75-2.4 7.2v14.475h-3.3zm42.975 18.6c.075 5.025 3.45 5.4 4.575 5.4 3.075 0 4.8-1.875 4.8-4.725 0-3.6-3.15-4.425-5.1-5.25-2.625-.9-6.825-2.325-6.825-7.275 0-3.675 2.625-7.275 7.35-7.275 3.825 0 7.05 3 6.975 7.125h-3.3c-.225-3.225-2.4-4.125-3.825-4.125-2.625 0-3.9 2.175-3.9 3.9 0 2.775 2.7 3.75 4.575 4.35 3 .975 7.35 2.7 7.275 8.1.075 4.5-2.625 8.1-8.1 8.1-3.6 0-8.025-2.475-7.875-8.4zm19.875-15.45h-5.4v-3h5.4v-9.225h3.3v9.225h6.15v3h-6.15v23.25h-3.3zm35.175 23.25h-3.075v-4.05h-.075c-.975 1.95-3.45 4.725-8.25 4.725-5.1 0-7.725-2.475-8.85-3.975-1.8-2.325-2.25-5.7-2.25-8.475v-14.475h3.3v14.475c0 3.3.675 5.475 1.8 6.9 1.8 2.1 4.2 2.475 5.925 2.475 1.8 0 3.825-.45 5.475-2.1 1.5-1.5 2.7-3.225 2.7-7.875v-13.875h3.3zm32.1.075h-3.3v-4.575h-.075c-2.7 4.2-7.275 5.25-9.975 5.25-8.1 0-13.8-6.3-13.8-13.875 0-6.975 5.4-13.725 13.8-13.725 2.85 0 7.2 1.05 9.975 5.175h.075v-13.8h3.3zm-13.35-2.4c5.55 0 10.275-4.575 10.275-10.65 0-5.775-4.35-10.8-10.275-10.8-5.625 0-10.5 4.125-10.5 10.8 0 5.85 4.2 10.65 10.5 10.65zm19.575-23.85h3.3v26.25h-3.3zm0-9.225h3.3v6.075h-3.3zm21.675 8.55c7.575 0 13.425 6.6 13.425 13.8 0 7.125-5.775 13.8-13.5 13.725-7.5 0-13.35-6.525-13.35-13.575.075-8.25 6.675-13.95 13.425-13.95zm0 24.525c4.95 0 10.125-4.05 10.125-10.875 0-6.9-5.7-10.65-10.125-10.65-4.725 0-10.125 3.9-10.125 10.875 0 6.15 4.875 10.65 10.125 10.65z"/><path d="m263.025 6.45c-15.675-.075-29.85 12.975-29.925 30.6-.075 16.275 13.5 30.075 29.625 30.15 16.05.075 29.925-13.2 30-30.15.075-16.65-13.275-30.525-29.7-30.6z" fill="#d48627"/><path d="m263.025 0c-18.525-.075-36.75 14.625-36.9 36.975-.075 20.025 16.875 36.525 36.6 36.6 19.425.075 36.9-15.675 36.975-36.675.075-20.85-17.1-36.825-36.675-36.9zm-29.925 37.05c.075-17.7 14.175-30.675 29.925-30.6 16.425.075 29.775 13.95 29.7 30.6-.075 16.875-13.95 30.225-30 30.15-16.125-.075-29.7-13.875-29.625-30.15z"/></g></svg>